<svg width="20" height="20" viewBox="0 0 20 20" fill="none" xmlns="http://www.w3.org/2000/svg">
<path d="M6.86783 15H3.32073C2.00614 15 1.34886 15 1.21056 14.9023C1.05519 14.7925 1.01723 14.7277 1.0004 14.5436C0.985433 14.3797 1.38828 13.7486 2.194 12.4866C3.02588 11.1835 3.73226 9.2862 3.73226 6.6C3.73226 5.11479 4.3926 3.69041 5.56802 2.6402C6.74345 1.59 8.33767 1 9.99998 1C11.6623 1 13.2565 1.59 14.4319 2.6402C15.6074 3.69041 16.2677 5.11479 16.2677 6.6C16.2677 9.2862 16.9741 11.1835 17.806 12.4866C18.6116 13.7486 19.0145 14.3797 18.9996 14.5436C18.9828 14.7277 18.9448 14.7925 18.7894 14.9023C18.6511 15 17.9938 15 16.6793 15H13.1338M6.86783 15L6.86612 16C6.86612 17.6569 8.26925 19 9.99998 19C11.7308 19 13.1338 17.6569 13.1338 16V15M6.86783 15H13.1338" stroke="white" stroke-width="1.344" stroke-linecap="round" stroke-linejoin="round"/>
</svg>
