<svg width="20" height="21" viewBox="0 0 20 21" fill="none" xmlns="http://www.w3.org/2000/svg">
<path d="M6.86783 16H3.32073C2.00614 16 1.34886 16 1.21056 15.9023C1.05519 15.7925 1.01723 15.7277 1.0004 15.5436C0.985433 15.3797 1.38828 14.7486 2.194 13.4866C3.02588 12.1835 3.73226 10.2862 3.73226 7.6C3.73226 6.11479 4.3926 4.69041 5.56802 3.6402C6.74345 2.59 8.33767 2 9.99998 2C11.6623 2 13.2565 2.59 14.4319 3.6402C15.6074 4.69041 16.2677 6.11479 16.2677 7.6C16.2677 10.2862 16.9741 12.1835 17.806 13.4866C18.6116 14.7486 19.0145 15.3797 18.9996 15.5436C18.9828 15.7277 18.9448 15.7925 18.7894 15.9023C18.6511 16 17.9938 16 16.6793 16H13.1338M6.86783 16L6.86612 17C6.86612 18.6569 8.26925 20 9.99998 20C11.7308 20 13.1338 18.6569 13.1338 17V16M6.86783 16H13.1338" stroke="white" stroke-width="1.344" stroke-linecap="round" stroke-linejoin="round"/>
<ellipse cx="16.6316" cy="3.34999" rx="2.84211" ry="2.7" fill="#496D17"/>
</svg>
